{
  "accessors": [
    {
      "bufferView": 2,
      "componentType": 5126,
      "count": 10277,
      "max": [
        100.99800109863281,
        224.4770965576172,
        298.1084899902344
      ],
      "min": [
        -100.99800109863281,
        74.82569885253906,
        -0.03290000185370445
      ],
      "type": "VEC3"
    },
    {
      "bufferView": 2,
      "byteOffset": 123324,
      "componentType": 5126,
      "count": 10277,
      "max": [
        0.9999608993530273,
        0.9999885559082031,
        0.9999998807907104
      ],
      "min": [
        -0.9999890327453613,
        -0.9999862909317017,
        -1.0
      ],
      "type": "VEC3"
    },
    {
      "bufferView": 3,
      "componentType": 5126,
      "count": 10277,
      "max": [
        0.9999986886978149,
        0.999394953250885,
        0.9993036389350891,
        1.0
      ],
      "min": [
        -0.9999924302101135,
        -0.9999421238899231,
        -0.9997984170913696,
        1.0
      ],
      "type": "VEC4"
    },
    {
      "bufferView": 1,
      "componentType": 5126,
      "count": 10277,
      "max": [
        0.899399995803833,
        1.0
      ],
      "min": [
        0.0,
        0.0
      ],
      "type": "VEC2"
    },
    {
      "bufferView": 0,
      "componentType": 5125,
      "count": 58008,
      "type": "SCALAR"
    }
  ],
  "asset": {
    "extras": {
      "author": "I am Frezzy (https://sketchfab.com/cgivn)",
      "license": "SKETCHFAB Standard (https://sketchfab.com/licenses)",
      "source": "https://sketchfab.com/3d-models/maneki-neko-low-poly-pbr-3d-printable-7f3dc8c675ff4041b8b35f28ca9a96aa",
      "title": "Maneki Neko Low Poly PBR - 3D Printable"
    },
    "generator": "Sketchfab-13.43.0",
    "version": "2.0"
  },
  "bufferViews": [
    {
      "buffer": 0,
      "byteLength": 232032,
      "name": "floatBufferViews",
      "target": 34963
    },
    {
      "buffer": 0,
      "byteLength": 82216,
      "byteOffset": 232032,
      "byteStride": 8,
      "name": "floatBufferViews",
      "target": 34962
    },
    {
      "buffer": 0,
      "byteLength": 246648,
      "byteOffset": 314248,
      "byteStride": 12,
      "name": "floatBufferViews",
      "target": 34962
    },
    {
      "buffer": 0,
      "byteLength": 164432,
      "byteOffset": 560896,
      "byteStride": 16,
      "name": "floatBufferViews",
      "target": 34962
    }
  ],
  "buffers": [
    {
      "byteLength": 725328,
      "uri": "scene.bin"
    }
  ],
  "images": [
    {
      "uri": "textures/Maneki_Neko_baseColor.png"
    },
    {
      "uri": "textures/Maneki_Neko_metallicRoughness.png"
    },
    {
      "uri": "textures/Maneki_Neko_normal.png"
    }
  ],
  "materials": [
    {
      "doubleSided": true,
      "emissiveTexture": {
        "index": 0
      },
      "name": "Maneki_Neko",
      "normalTexture": {
        "index": 2
      },
      "pbrMetallicRoughness": {
        "baseColorTexture": {
          "index": 0
        },
        "metallicRoughnessTexture": {
          "index": 1
        },
        "roughnessFactor": 0.42514415282027523
      }
    }
  ],
  "meshes": [
    {
      "name": "Object_0",
      "primitives": [
        {
          "attributes": {
            "NORMAL": 1,
            "POSITION": 0,
            "TANGENT": 2,
            "TEXCOORD_0": 3
          },
          "indices": 4,
          "material": 0,
          "mode": 4
        }
      ]
    }
  ],
  "nodes": [
    {
      "children": [
        1
      ],
      "matrix": [
        1.0,
        0.0,
        0.0,
        0.0,
        0.0,
        2.220446049250313e-16,
        -1.0,
        0.0,
        0.0,
        1.0,
        2.220446049250313e-16,
        0.0,
        0.0,
        0.0,
        0.0,
        1.0
      ],
      "name": "Sketchfab_model"
    },
    {
      "children": [
        2
      ],
      "name": "Maneki Neko.obj.cleaner.materialmerger.gles"
    },
    {
      "mesh": 0,
      "name": "Object_2"
    }
  ],
  "samplers": [
    {
      "magFilter": 9729,
      "minFilter": 9987,
      "wrapS": 10497,
      "wrapT": 10497
    }
  ],
  "scene": 0,
  "scenes": [
    {
      "name": "Sketchfab_Scene",
      "nodes": [
        0
      ]
    }
  ],
  "textures": [
    {
      "sampler": 0,
      "source": 0
    },
    {
      "sampler": 0,
      "source": 1
    },
    {
      "sampler": 0,
      "source": 2
    }
  ]
}
